<mxfile host="app.diagrams.net" modified="2023-12-02T14:43:51.633Z" agent="Mozilla/5.0 (Macintosh; Intel Mac OS X 10_15_7) AppleWebKit/537.36 (KHTML, like Gecko) Chrome/119.0.0.0 Safari/537.36" etag="sAipX8akYNBz5qE33WZe" version="22.1.5" type="github">
  <diagram name="Page-1" id="_N0fZ1hDsY4MojpAMcVY">
    <mxGraphModel dx="794" dy="542" grid="1" gridSize="10" guides="1" tooltips="1" connect="1" arrows="1" fold="1" page="1" pageScale="1" pageWidth="827" pageHeight="1169" math="0" shadow="0">
      <root>
        <mxCell id="0" />
        <mxCell id="1" parent="0" />
        <mxCell id="HyeYBQ7Uxz0Y4IC5Zl14-1" value="Etihad Stadium Manchester" style="text;html=1;strokeColor=none;fillColor=none;align=center;verticalAlign=middle;whiteSpace=wrap;rounded=0;" vertex="1" parent="1">
          <mxGeometry x="110" y="180" width="110" height="30" as="geometry" />
        </mxCell>
        <mxCell id="HyeYBQ7Uxz0Y4IC5Zl14-2" value="New Everton Stadium Liverpool" style="text;html=1;strokeColor=none;fillColor=none;align=center;verticalAlign=middle;whiteSpace=wrap;rounded=0;" vertex="1" parent="1">
          <mxGeometry x="580" y="180" width="140" height="30" as="geometry" />
        </mxCell>
        <mxCell id="HyeYBQ7Uxz0Y4IC5Zl14-4" value="" style="endArrow=oval;html=1;exitX=1;exitY=0;exitDx=0;exitDy=0;entryX=0;entryY=0;entryDx=0;entryDy=0;curved=1;endFill=1;strokeWidth=4;endSize=7;startSize=7;startArrow=oval;startFill=1;" edge="1" parent="1" source="HyeYBQ7Uxz0Y4IC5Zl14-1" target="HyeYBQ7Uxz0Y4IC5Zl14-2">
          <mxGeometry width="50" height="50" relative="1" as="geometry">
            <mxPoint x="380" y="310" as="sourcePoint" />
            <mxPoint x="600" y="260" as="targetPoint" />
            <Array as="points">
              <mxPoint x="320" y="130" />
              <mxPoint x="400" y="120" />
              <mxPoint x="480" y="130" />
            </Array>
          </mxGeometry>
        </mxCell>
        <mxCell id="HyeYBQ7Uxz0Y4IC5Zl14-5" value="" style="endArrow=oval;html=1;exitX=1;exitY=0.5;exitDx=0;exitDy=0;entryX=0;entryY=0.5;entryDx=0;entryDy=0;curved=1;endFill=1;strokeWidth=4;endSize=7;startSize=7;startArrow=oval;startFill=1;" edge="1" parent="1" source="HyeYBQ7Uxz0Y4IC5Zl14-1" target="HyeYBQ7Uxz0Y4IC5Zl14-2">
          <mxGeometry width="50" height="50" relative="1" as="geometry">
            <mxPoint x="230" y="190" as="sourcePoint" />
            <mxPoint x="590" y="190" as="targetPoint" />
            <Array as="points">
              <mxPoint x="410" y="200" />
            </Array>
          </mxGeometry>
        </mxCell>
        <mxCell id="HyeYBQ7Uxz0Y4IC5Zl14-7" value="Route 1, Public Transport, C&lt;sub&gt;1&lt;/sub&gt;(x&lt;sub&gt;1&lt;/sub&gt;)" style="text;html=1;strokeColor=none;fillColor=none;align=center;verticalAlign=middle;whiteSpace=wrap;rounded=0;" vertex="1" parent="1">
          <mxGeometry x="315" y="80" width="170" height="30" as="geometry" />
        </mxCell>
        <mxCell id="HyeYBQ7Uxz0Y4IC5Zl14-8" value="Route 2, Drive, C&lt;span style=&quot;font-size: 10px;&quot;&gt;&lt;sub&gt;2&lt;/sub&gt;&lt;/span&gt;(x&lt;span style=&quot;font-size: 10px;&quot;&gt;&lt;sub&gt;2&lt;/sub&gt;&lt;/span&gt;)" style="text;html=1;strokeColor=none;fillColor=none;align=center;verticalAlign=middle;whiteSpace=wrap;rounded=0;" vertex="1" parent="1">
          <mxGeometry x="345" y="160" width="110" height="30" as="geometry" />
        </mxCell>
      </root>
    </mxGraphModel>
  </diagram>
</mxfile>
